<svg version="1.1" id="Layer_1" xmlns="http://www.w3.org/2000/svg" xmlns:xlink="http://www.w3.org/1999/xlink" x="0px" y="0px" width="100%" viewBox="0 0 544 544" enable-background="new 0 0 544 544" xml:space="preserve">
  <path fill="#000000" opacity="1.000000" stroke="none" d="
M234.779022,329.801422
	C250.830231,313.781708 266.626587,298.019897 282.443298,282.278534
	C286.816742,277.925873 287.501770,277.976257 291.412842,282.604095
	C293.669952,285.274841 295.928070,287.944794 298.170990,290.627472
	C302.434570,295.726990 303.342041,295.785034 307.894165,291.134033
	C314.766632,284.112274 321.596863,277.048950 328.505005,270.062531
	C333.106873,265.408478 335.689575,265.583984 340.021454,270.584991
	C343.589569,274.704193 346.425537,279.467743 350.771362,283.084015
	C352.476288,281.239471 351.739166,279.145355 351.745850,277.286530
	C351.815430,257.960754 352.119019,238.626282 351.634613,219.312363
	C351.414276,210.527344 358.128571,207.166626 362.782410,202.089279
	C363.894012,200.876495 365.422821,201.763672 365.795471,203.315735
	C366.138855,204.745972 366.113770,206.283920 366.114197,207.774460
	C366.127167,252.924026 366.126404,298.073608 366.118958,343.223175
	C366.117523,351.843109 363.720154,354.267639 355.219482,354.277557
	C309.238922,354.331238 263.258331,354.378479 217.277771,354.432953
	C215.956940,354.434540 214.442383,354.769379 213.697662,353.336853
	C212.846878,351.700317 213.940506,350.531006 215.041870,349.438141
	C221.543854,342.986450 228.036240,336.525116 234.779022,329.801422
z" />
  <path fill="#000000" opacity="1.000000" stroke="none" d="
M264.223450,267.216187
	C238.543640,292.901428 213.109589,318.326782 187.658279,343.734863
	C186.533356,344.857880 185.582092,346.822662 183.636795,346.052856
	C181.514938,345.213257 181.992828,343.011292 181.992325,341.227844
	C181.979523,295.574585 181.968521,249.921326 181.998703,204.268097
	C182.003952,196.312927 184.708679,193.836655 193.095093,193.820099
	C226.085342,193.754959 259.075592,193.699417 292.065826,193.638947
	C304.713470,193.615768 317.357147,192.424973 330.011505,193.546661
	C331.494934,193.678146 333.155670,193.221710 333.929230,194.944931
	C334.769714,196.817169 333.415039,197.992126 332.354187,199.314011
	C327.385834,205.504974 321.523529,208.280869 313.060608,208.151840
	C278.078827,207.618500 243.084244,207.923904 208.094376,207.921310
	C207.761139,207.921280 207.427887,207.926529 207.094681,207.923813
	C195.377518,207.828308 194.105392,209.536057 197.023026,222.193817
	C207.006897,216.710480 215.982132,217.752472 223.058823,227.043243
	C227.497421,232.870544 227.741013,241.588181 223.426849,247.597916
	C216.404312,257.380402 207.026260,257.647705 196.477188,252.807678
	C196.477188,264.104034 196.477188,274.815002 196.477188,286.025055
	C199.414444,284.866302 201.163925,282.903687 203.008530,281.082855
	C216.756165,267.512360 230.493454,253.931381 244.248627,240.368530
	C249.038773,235.645340 251.702911,235.711533 256.250061,240.894363
	C260.092316,245.273682 263.737946,249.825150 267.483459,254.289658
	C271.680634,259.292542 271.661804,259.685486 266.898590,264.443939
	C266.074554,265.267120 265.276154,266.115967 264.223450,267.216187
z" />
  <path fill="#000000" opacity="1.000000" stroke="none" d="
M356.450989,201.450165
	C308.394043,249.546234 260.587952,297.392914 212.771347,345.229034
	C204.409561,353.594238 195.996384,361.908020 187.620529,370.259155
	C182.867676,374.998016 179.566940,375.541351 176.135101,372.096161
	C172.558594,368.505737 172.971390,365.237396 177.657135,360.554077
	C206.175858,332.050018 234.717590,303.568909 263.221832,275.050385
	C295.133179,243.122971 327.012329,211.163406 358.908600,179.220947
	C359.967468,178.160553 360.998413,177.059540 362.148346,176.105148
	C365.999390,172.908920 369.180511,172.974197 372.247314,176.243820
	C375.405243,179.610596 374.755249,182.943970 371.850983,185.958420
	C366.881500,191.116440 361.757416,196.125534 356.450989,201.450165
z" />
</svg>
